P3
# Created by IrfanView
8 8
255
255 255 255 254 254 255 254 254 255 216 217 242 137 139 216 
182 183 231 240 241 250 255 255 255 238 238 249 227 227 246 
245 245 251 206 207 239 107 109 206 163 165 225 238 238 249 
255 255 255 181 183 231 137 139 216 212 212 240 223 223 245 
193 193 234 220 220 243 250 251 253 255 255 255 163 165 225 
105 108 205 160 162 224 107 110 206 98 101 203 158 160 223 
234 234 248 255 255 255 227 227 246 197 199 236 117 120 209 
30 34 181 31 34 181 54 58 189 177 178 229 230 231 247 
254 254 255 243 243 251 189 190 234 108 110 207 111 113 207 
134 137 214 142 144 218 159 161 223 235 235 248 191 193 234 
211 212 240 230 231 247 240 240 250 211 212 240 133 135 215 
136 138 215 195 196 235 75 78 195 144 146 218 233 234 248 
255 255 255 245 245 252 219 219 243 219 219 243 