P3
# Created by IrfanView
16 16
255
255 255 255 255 255 255 255 255 255 255 255 255 255 255 255 
253 253 254 231 232 247 189 191 233 147 148 220 133 135 214 
157 159 222 197 198 235 229 230 247 249 250 253 255 255 255 
255 255 255 255 255 255 255 255 255 255 255 255 255 255 255 
255 255 255 253 252 254 230 230 247 183 185 231 136 137 215 
122 124 211 148 149 220 191 193 234 226 227 245 249 249 253 
255 255 255 255 255 255 247 247 252 244 245 251 242 242 251 
246 246 252 251 252 254 249 250 253 227 227 246 175 177 228 
122 123 211 105 107 206 135 137 216 183 185 232 223 224 245 
249 248 252 255 255 255 255 255 255 224 224 245 218 218 243 
208 209 239 215 215 242 234 233 248 245 246 251 234 234 247 
193 193 234 146 147 220 130 132 214 156 158 222 197 198 236 
230 231 246 251 250 253 255 255 255 255 255 255 192 194 234 
181 182 231 161 163 224 170 171 227 205 205 238 235 234 248 
237 237 249 215 215 242 187 188 233 179 180 230 196 196 235 
222 222 244 242 243 250 254 254 254 255 255 255 255 255 255 
164 166 225 148 150 221 119 121 210 129 131 213 176 176 228 
211 211 241 212 213 241 197 198 236 185 186 232 188 189 233 
206 207 238 230 229 246 248 248 252 255 255 255 255 255 255 
255 255 255 154 157 222 137 140 216 105 107 205 112 114 208 
154 155 222 174 174 228 157 159 222 133 135 214 127 130 212 
140 142 217 168 170 226 203 203 238 234 234 248 252 252 254 
255 255 255 255 255 255 173 174 228 160 162 224 131 133 214 
125 128 212 137 138 216 126 129 212 91 94 200 62 65 191 
58 62 190 72 75 194 100 103 205 147 150 219 200 201 237 
239 239 249 255 255 255 255 255 255 209 209 240 204 204 238 
183 185 231 161 163 223 134 136 215 92 96 201 47 51 186 
21 25 178 22 25 177 29 32 180 46 50 187 94 98 202 
161 162 224 215 215 242 242 242 251 244 245 252 242 241 251 
243 243 251 233 233 248 205 206 238 157 159 223 96 101 203 
46 50 186 21 25 177 23 26 178 30 33 181 42 47 185 
80 84 198 137 140 216 186 187 232 211 212 241 216 217 242 
255 255 255 255 255 255 255 254 255 234 235 248 193 194 234 
138 140 217 89 91 201 64 66 192 66 68 192 78 81 196 
90 94 200 110 114 207 135 137 215 157 159 223 172 174 228 
176 178 228 255 255 255 255 255 255 251 251 254 240 241 250 
220 221 244 188 189 233 155 156 222 137 139 217 140 141 217 
151 154 220 157 159 221 149 152 220 136 138 216 130 132 214 
136 138 215 140 142 217 245 245 252 239 239 249 224 224 245 
216 217 242 216 217 242 215 216 242 210 211 241 210 211 240 
215 216 242 218 218 242 209 210 239 178 180 229 140 143 218 
120 122 210 122 124 210 126 129 212 222 222 244 206 207 239 
171 173 226 159 161 223 179 180 230 210 211 240 233 235 247 
250 251 253 255 255 255 255 255 255 240 241 250 206 207 239 
167 169 226 146 148 219 147 149 219 152 153 220 199 200 237 
173 175 228 116 118 209 96 98 202 130 132 213 183 185 231 
227 228 246 255 255 255 255 255 255 255 255 255 254 253 254 
231 232 248 208 209 239 195 196 235 195 196 235 198 198 236 
192 192 234 163 165 224 98 101 202 74 77 195 112 114 207 
170 172 227 219 220 243 250 251 254 255 255 255 255 255 255 
253 253 254 238 239 250 224 224 244 215 215 242 214 215 242 
216 216 243 