P3
# Created by IrfanView
32 24
255
255 255 255 255 255 255 255 255 255 255 255 255 255 255 255 
255 255 255 255 255 255 255 255 255 255 255 255 255 255 255 
255 255 255 255 255 255 255 255 255 255 255 255 255 255 255 
255 255 255 255 255 255 255 255 255 255 255 255 255 255 255 
255 255 255 255 255 255 255 255 255 255 255 255 255 255 255 
255 255 255 255 255 255 255 255 255 255 255 255 255 255 255 
255 255 255 255 255 255 255 255 255 255 255 255 255 255 255 
255 255 255 255 255 255 255 255 255 255 255 255 255 255 255 
255 255 255 255 255 255 255 255 255 255 255 255 255 255 255 
255 255 255 255 255 255 255 255 255 255 255 255 255 255 255 
255 255 255 255 255 255 255 255 255 255 255 255 255 255 255 
255 255 255 255 255 255 255 255 255 255 255 255 255 255 255 
255 255 255 255 255 255 255 255 255 255 255 255 255 255 255 
255 255 255 255 255 255 255 255 255 255 255 255 243 246 252 
169 189 236 119 150 225 102 137 221 115 147 224 161 183 234 
237 241 251 255 255 255 255 255 255 255 255 255 255 255 255 
255 255 255 255 255 255 255 255 255 245 253 245 139 242 148 
54 236 73 14 234 40 15 235 42 57 239 79 146 246 158 
248 254 249 255 255 255 255 255 255 255 255 255 255 255 255 
255 255 255 255 255 255 255 255 255 255 255 255 255 255 255 
220 228 247 85 124 217 66 109 213 66 109 213 66 109 213 
66 109 213 66 109 213 77 118 215 204 216 244 255 255 255 
255 255 255 255 255 255 255 255 255 255 255 255 233 251 233 
44 235 64 1 234 29 1 234 29 1 234 29 1 234 29 
1 234 29 1 234 29 54 238 76 240 254 241 255 255 255 
255 255 255 255 255 255 255 255 255 255 255 255 255 255 255 
255 255 255 253 254 255 94 131 219 66 109 213 66 109 213 
66 109 213 66 109 213 66 109 213 66 109 213 66 109 213 
79 119 216 245 247 253 255 255 255 255 255 255 255 255 255 
255 255 255 92 238 106 1 234 29 1 234 29 1 234 29 
1 234 29 1 234 29 1 234 29 1 234 29 1 234 29 
110 243 126 255 255 255 255 255 255 255 255 255 255 255 255 
255 255 255 255 255 255 255 255 255 226 233 248 66 109 213 
66 109 213 66 109 213 66 109 213 66 109 213 66 109 213 
66 109 213 66 109 213 66 109 213 203 215 243 255 255 255 
255 255 255 255 255 255 255 255 255 25 233 47 1 234 29 
1 234 29 1 234 29 1 234 29 1 234 29 1 234 29 
1 234 29 1 234 29 43 237 66 255 255 255 255 255 255 
255 255 255 255 255 255 255 255 255 255 255 255 255 255 255 
241 244 252 69 112 214 66 109 213 66 109 213 66 109 213 
66 109 213 66 109 213 66 109 213 66 109 213 66 109 213 
221 229 247 255 255 255 255 255 255 255 255 255 255 255 255 
53 235 71 1 234 29 1 234 29 1 234 29 1 234 29 
1 234 29 1 234 29 1 234 29 1 234 29 72 237 89 
255 255 255 255 255 255 255 255 255 255 255 255 255 255 255 
255 255 255 255 255 255 255 255 255 154 177 232 66 109 213 
66 109 213 66 109 213 66 109 213 66 109 213 66 109 213 
66 109 213 130 159 227 255 255 255 255 255 255 255 255 255 
255 255 255 255 255 255 181 245 185 4 234 31 1 234 29 
1 234 29 1 234 29 1 234 29 1 234 29 1 234 29 
8 234 34 198 247 200 255 255 255 255 255 255 255 255 255 
255 255 255 255 255 255 255 255 255 255 255 255 255 255 255 
254 254 255 171 190 236 81 121 216 66 109 213 66 109 213 
66 109 213 66 109 213 67 110 213 176 194 237 255 255 255 
255 255 255 255 255 255 255 255 255 255 255 255 255 255 255 
129 242 140 4 233 30 1 234 29 1 234 29 1 234 29 
1 234 29 45 235 65 194 247 197 255 255 255 255 255 255 
255 255 255 255 255 255 255 255 255 255 255 255 255 255 255 
255 255 255 255 255 255 255 255 255 255 255 255 251 252 254 
217 225 246 200 212 243 117 149 224 66 109 213 66 109 213 
106 140 222 255 255 255 255 255 255 255 255 255 255 255 255 
255 255 255 255 255 255 166 248 175 2 234 29 4 233 30 
54 237 75 167 246 175 209 249 212 254 255 254 255 255 255 
255 255 255 255 255 255 255 255 255 255 255 255 255 255 255 
255 255 255 255 255 255 255 255 255 255 255 255 255 255 255 
255 255 255 255 255 255 255 255 255 255 255 255 194 208 241 
68 110 213 66 109 213 164 185 234 255 255 255 255 255 255 
255 255 255 255 255 255 255 255 255 255 255 255 253 255 253 
140 245 153 108 243 124 224 252 227 255 255 255 255 255 255 
255 255 255 255 255 255 255 255 255 255 255 255 255 255 255 
255 255 255 255 255 255 255 255 255 255 255 255 255 255 255 
255 255 255 255 255 255 255 255 255 255 255 255 255 255 255 
255 255 255 255 255 255 228 234 249 219 228 247 255 255 255 
255 255 255 255 255 255 255 255 255 255 255 255 255 255 255 
255 255 255 255 255 255 255 255 255 255 255 255 255 255 255 
255 255 255 255 255 255 255 255 255 255 255 255 255 255 255 
255 255 255 255 255 255 255 255 255 255 255 255 255 255 255 
255 255 255 255 255 255 255 255 255 255 255 255 255 255 255 
255 255 255 255 255 255 255 255 255 255 255 255 255 255 255 
255 255 255 255 255 255 255 255 255 255 255 255 255 255 255 
255 255 255 255 255 255 255 255 255 255 255 255 255 255 255 
255 255 255 255 255 255 255 255 255 255 255 255 255 255 255 
255 255 253 253 253 229 255 255 253 255 255 255 255 255 255 
255 255 255 255 255 255 255 255 255 255 255 255 255 255 255 
255 255 255 255 255 255 255 255 255 255 255 255 255 255 255 
255 250 250 255 254 254 255 255 255 255 255 255 255 255 255 
255 255 255 255 255 255 255 255 255 255 255 255 254 254 245 
255 255 255 255 255 255 255 255 255 255 255 255 255 255 255 
255 255 255 254 253 235 241 239 48 238 236 1 241 239 43 
253 253 230 255 255 255 255 255 255 255 255 255 255 255 255 
255 255 255 255 255 255 255 214 214 254 42 42 254 46 46 
254 92 92 254 24 24 254 1 1 254 9 9 254 59 58 
255 157 157 255 253 253 255 255 255 255 255 255 255 255 255 
255 255 255 255 255 255 255 255 255 253 253 226 246 245 123 
242 240 60 240 239 37 241 240 50 241 240 52 238 236 3 
238 236 1 238 236 1 246 245 122 255 255 255 255 255 255 
255 255 255 255 255 255 255 255 255 255 255 255 254 115 115 
254 3 3 254 1 1 254 0 0 254 0 0 254 0 0 
254 0 0 254 0 0 254 0 0 254 74 74 255 249 249 
255 255 255 255 255 255 255 255 255 255 255 255 249 249 169 
239 237 11 238 236 1 238 236 1 238 236 1 238 236 1 
238 236 1 238 236 1 238 236 4 238 236 1 246 245 119 
255 255 255 255 255 255 255 255 255 255 255 255 255 255 255 
255 255 255 255 175 175 254 1 1 254 0 0 254 0 0 
254 0 0 254 0 0 254 0 0 254 0 0 254 0 0 
254 0 0 254 139 139 255 255 255 255 255 255 255 255 255 
253 252 220 238 237 8 238 236 1 238 236 1 238 236 1 
238 236 1 238 236 1 238 236 1 238 236 1 238 236 1 
240 238 34 253 253 227 255 255 255 255 255 255 255 255 255 
255 255 255 255 255 255 255 255 255 255 175 175 254 0 0 
254 0 0 254 0 0 254 0 0 254 0 0 254 0 0 
254 0 0 254 0 0 254 0 0 254 67 67 255 255 255 
255 255 255 255 255 255 248 247 146 238 236 1 238 236 1 
238 236 1 238 236 1 238 236 1 238 236 1 238 236 1 
238 236 1 238 236 1 243 241 74 255 255 255 255 255 255 
255 255 255 255 255 255 255 255 255 255 255 255 255 255 255 
255 196 196 254 0 0 254 0 0 254 0 0 254 0 0 
254 0 0 254 0 0 254 0 0 254 0 0 254 0 0 
254 88 88 255 255 255 255 255 255 255 255 255 249 248 164 
238 236 1 238 236 1 238 236 1 238 236 1 238 236 1 
238 236 1 238 236 1 238 236 1 238 236 1 244 243 93 
255 255 255 255 255 255 255 255 255 255 255 255 255 255 255 
255 255 255 255 255 255 255 254 254 254 62 62 254 0 0 
254 0 0 254 0 0 254 0 0 254 0 0 254 0 0 
254 0 0 254 6 6 255 201 201 255 255 255 255 255 255 
255 255 255 254 254 246 241 239 43 238 236 1 238 236 1 
238 236 1 238 236 1 238 236 1 238 236 1 238 236 1 
239 237 10 252 251 207 255 255 255 255 255 255 255 255 255 
255 255 255 255 255 255 255 255 255 255 255 255 255 255 255 
255 238 238 254 81 81 254 0 0 254 0 0 254 0 0 
254 0 0 254 0 0 254 27 27 255 183 183 255 255 255 
255 255 255 255 255 255 255 255 255 255 255 255 253 253 231 
243 242 78 238 236 2 238 236 1 238 236 1 238 236 1 
238 236 1 241 239 42 251 251 196 255 255 255 255 255 255 
255 255 255 255 255 255 255 255 255 255 255 255 255 255 255 
255 255 255 255 255 255 255 255 255 255 255 255 255 211 211 
255 141 141 254 114 114 254 125 125 255 176 176 255 248 248 
255 255 255 255 255 255 255 255 255 255 255 255 255 255 255 
255 255 255 255 255 255 255 255 255 253 252 219 248 248 157 
247 246 134 248 247 147 251 251 198 255 255 253 255 255 255 
255 255 255 255 255 255 255 255 255 255 255 255 255 255 255 
255 255 255 255 255 255 255 255 255 255 255 255 255 255 255 
255 255 255 255 255 255 255 255 255 255 255 255 255 255 255 
255 255 255 255 255 255 255 255 255 255 255 255 255 255 255 
255 255 255 255 255 255 255 255 255 255 255 255 255 255 255 
255 255 255 255 255 255 255 255 255 255 255 255 255 255 255 
255 255 255 255 255 255 255 255 255 255 255 255 255 255 255 
255 255 255 255 255 255 255 255 255 255 255 255 255 255 255 
255 255 255 255 255 255 255 255 255 255 255 255 255 255 255 
255 255 255 255 255 255 255 255 255 255 255 255 255 255 255 
255 255 255 255 255 255 255 255 255 255 255 255 255 255 255 
255 255 255 255 255 255 255 255 255 255 255 255 255 255 255 
255 255 255 255 255 255 255 255 255 255 255 255 255 255 255 
255 255 255 255 255 255 255 255 255 