P3
# Created by IrfanView
7 7
255
174 255 255 174 255 255 174 255 255 173 255 255 174 255 255 
174 255 255 174 255 255 174 255 255 190 249 253 219 229 239 
219 229 237 218 230 239 190 250 253 174 255 255 174 255 255 
219 230 238 255 145 155 255 140 146 255 144 155 219 230 238 
174 255 255 173 255 255 218 228 237 255 140 146 255 137 137 
255 140 146 218 228 237 174 255 255 174 255 255 219 230 238 
255 145 155 255 140 146 255 144 155 219 230 238 174 255 255 
174 255 255 190 249 253 219 229 239 219 229 237 218 230 239 
190 250 253 174 255 255 174 255 255 174 255 255 174 255 255 
173 255 255 174 255 255 174 255 255 174 255 255 