P3
# Created by IrfanView
16 16
255
33 136 235 33 136 235 33 136 235 33 136 235 33 136 235 33 136 235 33 136 235 33 136 235 33 136 235 
33 136 235 33 136 235 33 136 235 33 136 235 33 136 235 33 136 235 33 136 235 33 136 235 33 136 235 33 136 235 33 136 235 33 136 235 33 136 235 33 136 235 33 136 235 33 136 235 
33 136 235 33 136 235 33 136 235 33 136 235 33 136 235 33 136 235 33 136 235 33 136 235 33 136 235 33 136 235 33 136 235 33 136 235 33 136 235 33 136 235 33 136 235 33 136 235 
33 136 235 33 136 235 33 136 235 33 136 235 33 136 235 33 136 235 33 136 235 33 136 235 33 136 235 33 136 235 33 136 235 33 136 235 33 136 235 33 136 235 33 136 235 33 136 235 
33 136 235 33 136 235 33 136 235 33 136 235 33 136 235 33 136 235 33 136 235 33 136 235 33 136 235 33 136 235 33 136 235 255 0 0 255 0 0 255 0 0 255 0 0 255 0 0 
255 0 0 255 0 0 255 0 0 33 136 235 33 136 235 33 136 235 33 136 235 33 136 235 33 136 235 33 136 235 33 136 235 255 0 0 255 0 0 255 0 0 255 0 0 255 0 0 
255 0 0 255 0 0 255 0 0 33 136 235 33 136 235 33 136 235 33 136 235 33 136 235 33 136 235 33 136 235 33 136 235 255 0 0 255 0 0 255 0 0 255 0 0 255 0 0 
255 0 0 255 0 0 255 0 0 33 136 235 33 136 235 33 136 235 33 136 235 33 136 235 33 136 235 33 136 235 33 136 235 255 0 0 255 0 0 255 0 0 255 0 0 255 0 0 
255 0 0 255 0 0 255 0 0 33 136 235 33 136 235 33 136 235 33 136 235 33 136 235 33 136 235 33 136 235 33 136 235 255 0 0 255 0 0 255 0 0 255 0 0 255 0 0 
255 0 0 255 0 0 255 0 0 33 136 235 33 136 235 33 136 235 33 136 235 33 136 235 33 136 235 33 136 235 33 136 235 255 0 0 255 0 0 255 0 0 255 0 0 255 0 0 
255 0 0 255 0 0 255 0 0 33 136 235 33 136 235 33 136 235 33 136 235 33 136 235 33 136 235 33 136 235 33 136 235 255 0 0 255 0 0 255 0 0 255 0 0 255 0 0 
255 0 0 255 0 0 255 0 0 33 136 235 33 136 235 33 136 235 33 136 235 33 136 235 33 136 235 33 136 235 33 136 235 255 0 0 255 0 0 255 0 0 255 0 0 255 0 0 
255 0 0 255 0 0 255 0 0 33 136 235 33 136 235 33 136 235 33 136 235 33 136 235 33 136 235 33 136 235 33 136 235 33 136 235 33 136 235 33 136 235 33 136 235 33 136 235 
33 136 235 33 136 235 33 136 235 33 136 235 33 136 235 33 136 235 33 136 235 33 136 235 33 136 235 33 136 235 33 136 235 33 136 235 33 136 235 33 136 235 33 136 235 33 136 235 
33 136 235 33 136 235 33 136 235 33 136 235 33 136 235 33 136 235 33 136 235 33 136 235 33 136 235 33 136 235 33 136 235 33 136 235 33 136 235 33 136 235 33 136 235 33 136 235 
33 136 235 33 136 235 33 136 235 33 136 235 33 136 235 33 136 235 33 136 235 33 136 235 33 136 235 33 136 235 33 136 235 33 136 235 33 136 235 33 136 235 33 136 235 33 136 235 
33 136 235 33 136 235 33 136 235 33 136 235 33 136 235 33 136 235 33 136 235 