P3
# Created by IrfanView
15 15
255
255 255 255 255 255 255 255 255 255 255 255 255 255 255 255 255 255 255 128 255 0 128 255 0 255 255 0 
255 255 0 255 255 0 255 255 0 255 255 0 128 255 0 255 255 255 255 255 255 255 255 0 255 255 0 128 255 0 128 255 0 128 255 0 128 255 0 255 255 0 255 255 0 
0 0 255 0 0 255 255 255 0 128 255 0 255 255 0 255 255 0 255 255 255 255 255 255 128 255 0 128 255 0 128 255 0 0 0 255 255 255 0 128 255 0 255 255 255 
255 255 255 255 255 255 255 255 0 128 255 0 255 255 255 255 255 0 255 255 255 255 255 255 128 255 0 255 255 0 128 255 0 0 0 255 255 255 0 128 255 0 128 255 0 
0 0 255 255 255 255 128 255 0 255 255 0 255 255 255 255 255 0 255 255 255 128 255 0 128 255 0 255 255 255 0 0 255 128 255 0 128 255 0 128 255 0 128 255 0 
255 255 255 0 0 255 128 255 0 255 255 0 0 0 255 255 255 0 255 255 0 128 255 0 255 255 0 0 0 255 0 0 255 255 255 0 255 255 0 255 255 255 128 255 0 
128 255 0 128 255 0 128 255 0 255 255 0 255 255 255 128 255 0 128 255 0 255 255 255 255 255 0 0 0 255 255 255 255 128 255 0 128 255 0 128 255 0 128 255 0 
128 255 0 128 255 0 128 255 0 128 255 0 255 255 255 128 255 0 128 255 0 255 255 0 255 255 255 128 255 0 128 255 0 255 255 255 255 255 0 0 0 255 128 255 0 
255 255 255 128 255 0 128 255 0 128 255 0 128 255 0 128 255 0 128 255 0 128 255 0 128 255 0 255 255 0 0 0 255 255 255 0 128 255 0 128 255 0 255 255 0 
0 0 255 128 255 0 0 0 255 128 255 0 128 255 0 255 255 255 128 255 0 128 255 0 128 255 0 255 255 255 0 0 255 128 255 0 128 255 0 128 255 0 255 255 0 
255 255 255 128 255 0 0 0 255 128 255 0 128 255 0 255 255 255 128 255 0 255 255 0 128 255 0 128 255 0 128 255 0 128 255 0 128 255 0 0 0 255 255 255 0 
0 0 255 128 255 0 128 255 0 128 255 0 128 255 0 255 255 255 128 255 0 255 255 0 255 255 0 255 255 0 255 255 0 255 255 0 128 255 0 255 255 255 255 255 0 
128 255 0 128 255 0 255 255 255 255 255 0 128 255 0 128 255 0 128 255 0 255 255 0 255 255 0 255 255 0 255 255 255 255 255 0 128 255 0 128 255 0 128 255 0 
255 255 0 255 255 0 255 255 0 255 255 0 255 255 255 255 255 255 128 255 0 255 255 0 255 255 0 255 255 255 255 255 255 255 255 255 255 255 255 255 255 255 255 255 255 
255 255 0 255 255 0 255 255 0 255 255 255 128 255 0 128 255 0 128 255 0 128 255 0 128 255 0 128 255 0 128 255 0 128 255 0 128 255 0 128 255 0 128 255 0 
128 255 0 128 255 0 128 255 0 128 255 0 255 255 255 255 255 255 